# Blender v2.90.1 OBJ File: 'delorea2n.blend'
# www.blender.org
mtllib lights.mtl
o l2.003_Cube.004
v -0.120147 0.674868 -0.522226
v -0.055670 0.439346 -0.622300
v -0.092505 0.684746 -0.196963
v -0.066245 0.525603 -0.222671
v -0.120147 0.674868 0.522226
v -0.055670 0.439346 0.622300
v -0.092505 0.684746 0.196963
v -0.066245 0.525603 0.222671
vt 0.000000 0.000000
vt 0.000000 0.333333
vt 1.000000 0.333333
vt 1.000000 0.000000
vt 0.000000 0.000000
vt 1.000000 0.000000
vt 1.000000 0.333333
vt 0.000000 0.333333
vn 0.9692 0.2402 -0.0547
vn 0.9692 0.2402 0.0547
usemtl l2
s off
f 1/1/1 3/2/1 4/3/1 2/4/1
f 5/5/2 6/6/2 8/7/2 7/8/2
