# Blender v2.90.1 OBJ File: 'delorea2n.blend'
# www.blender.org
mtllib windows.mtl
o l2.001_Cube.001
v -2.369668 0.485823 0.665097
v -1.586082 0.846494 0.443143
v -2.169141 0.611786 -0.602186
v -1.653946 0.858753 -0.454029
v -1.027780 0.555480 0.665097
v -1.096786 0.877484 0.418966
v -0.238607 0.468548 0.660801
v -0.108752 0.696590 0.483923
v -2.369668 0.485823 -0.665097
v -1.586082 0.846494 -0.443142
v -2.169141 0.611786 0.602186
v -1.653946 0.858753 0.454029
v -1.027780 0.555480 -0.665097
v -1.096786 0.877484 -0.418966
v -0.238607 0.468548 -0.660801
v -0.108752 0.696590 -0.483922
v -1.148653 0.901556 0.000000
v -0.110616 0.677764 0.000000
vt 0.000000 0.000000
vt 1.000000 0.000000
vt 1.000000 1.000000
vt 0.000000 1.000000
vt 0.000000 0.000000
vt 1.000000 0.000000
vt 0.000000 0.000000
vt 1.000000 0.000000
vt 1.000000 0.000000
vt 1.000000 0.000000
vt 0.000000 0.000000
vt 0.000000 1.000000
vt 1.000000 1.000000
vt 1.000000 0.000000
vt 1.000000 0.000000
vt 0.000000 0.000000
vt 1.000000 0.000000
vt 0.000000 0.000000
vn -0.4221 0.9060 0.0320
vn -0.0211 0.5803 0.8141
vn 0.0639 0.6039 0.7945
vn 0.1961 0.9806 -0.0060
vn -0.4221 0.9060 -0.0320
vn -0.0211 0.5803 -0.8141
vn 0.0639 0.6039 -0.7945
vn 0.1961 0.9806 0.0060
usemtl window
s off
f 1/1/1 2/2/1 4/3/1 3/4/1
f 2/2/2 1/1/2 5/5/2 6/6/2
f 6/6/3 5/5/3 7/7/3 8/8/3
f 6/6/4 8/8/4 18/9/4 17/10/4
f 9/11/5 11/12/5 12/13/5 10/14/5
f 10/14/6 14/15/6 13/16/6 9/11/6
f 14/15/7 16/17/7 15/18/7 13/16/7
f 14/15/8 17/10/8 18/9/8 16/17/8
